<mxfile host="app.diagrams.net" modified="2023-06-14T10:18:21.032Z" agent="Mozilla/5.0 (Windows NT 10.0; Win64; x64) AppleWebKit/537.36 (KHTML, like Gecko) Chrome/114.0.0.0 Safari/537.36" etag="My-thdRaFmTqRsJZPMMq" version="21.3.8" type="device">
  <diagram name="Page-1" id="P1j3s-myysfn5ifrR6Tq">
    <mxGraphModel dx="794" dy="470" grid="1" gridSize="10" guides="1" tooltips="1" connect="1" arrows="1" fold="1" page="1" pageScale="1" pageWidth="850" pageHeight="1100" math="0" shadow="0">
      <root>
        <mxCell id="0" />
        <mxCell id="1" parent="0" />
        <mxCell id="eBX_AqDf1ne4Vbr7rgHg-16" style="edgeStyle=orthogonalEdgeStyle;rounded=0;orthogonalLoop=1;jettySize=auto;html=1;exitX=1;exitY=0.5;exitDx=0;exitDy=0;entryX=0;entryY=0.5;entryDx=0;entryDy=0;" edge="1" parent="1" source="eBX_AqDf1ne4Vbr7rgHg-6" target="eBX_AqDf1ne4Vbr7rgHg-7">
          <mxGeometry relative="1" as="geometry" />
        </mxCell>
        <mxCell id="eBX_AqDf1ne4Vbr7rgHg-6" value="MVC" style="rounded=1;whiteSpace=wrap;html=1;" vertex="1" parent="1">
          <mxGeometry x="120" y="190" width="120" height="60" as="geometry" />
        </mxCell>
        <mxCell id="eBX_AqDf1ne4Vbr7rgHg-7" value="API&lt;br&gt;&lt;br&gt;&lt;br&gt;&lt;br&gt;&lt;br&gt;&lt;br&gt;&lt;br&gt;&lt;br&gt;&lt;br&gt;&lt;br&gt;&lt;br&gt;&lt;br&gt;&lt;br&gt;&lt;span style=&quot;white-space: pre;&quot;&gt;&#x9;&lt;/span&gt;" style="rounded=1;whiteSpace=wrap;html=1;" vertex="1" parent="1">
          <mxGeometry x="280" y="110" width="200" height="220" as="geometry" />
        </mxCell>
        <mxCell id="eBX_AqDf1ne4Vbr7rgHg-21" value="" style="edgeStyle=orthogonalEdgeStyle;rounded=0;orthogonalLoop=1;jettySize=auto;html=1;entryX=0;entryY=0.5;entryDx=0;entryDy=0;" edge="1" parent="1" source="eBX_AqDf1ne4Vbr7rgHg-8" target="eBX_AqDf1ne4Vbr7rgHg-17">
          <mxGeometry relative="1" as="geometry" />
        </mxCell>
        <mxCell id="eBX_AqDf1ne4Vbr7rgHg-8" value="/TODO/.." style="rounded=1;whiteSpace=wrap;html=1;" vertex="1" parent="1">
          <mxGeometry x="315" y="147" width="130" height="40" as="geometry" />
        </mxCell>
        <mxCell id="eBX_AqDf1ne4Vbr7rgHg-23" value="" style="edgeStyle=orthogonalEdgeStyle;rounded=0;orthogonalLoop=1;jettySize=auto;html=1;" edge="1" parent="1" source="eBX_AqDf1ne4Vbr7rgHg-9" target="eBX_AqDf1ne4Vbr7rgHg-18">
          <mxGeometry relative="1" as="geometry" />
        </mxCell>
        <mxCell id="eBX_AqDf1ne4Vbr7rgHg-9" value="/weather/.." style="rounded=1;whiteSpace=wrap;html=1;" vertex="1" parent="1">
          <mxGeometry x="315" y="208" width="130" height="40" as="geometry" />
        </mxCell>
        <mxCell id="eBX_AqDf1ne4Vbr7rgHg-26" value="" style="edgeStyle=orthogonalEdgeStyle;rounded=0;orthogonalLoop=1;jettySize=auto;html=1;entryX=0;entryY=0.5;entryDx=0;entryDy=0;" edge="1" parent="1" source="eBX_AqDf1ne4Vbr7rgHg-10" target="eBX_AqDf1ne4Vbr7rgHg-19">
          <mxGeometry relative="1" as="geometry" />
        </mxCell>
        <mxCell id="eBX_AqDf1ne4Vbr7rgHg-10" value="/events/.." style="rounded=1;whiteSpace=wrap;html=1;" vertex="1" parent="1">
          <mxGeometry x="315" y="270" width="130" height="40" as="geometry" />
        </mxCell>
        <mxCell id="eBX_AqDf1ne4Vbr7rgHg-11" value="" style="endArrow=none;html=1;rounded=0;entryX=0.5;entryY=1;entryDx=0;entryDy=0;" edge="1" parent="1" target="eBX_AqDf1ne4Vbr7rgHg-9">
          <mxGeometry width="50" height="50" relative="1" as="geometry">
            <mxPoint x="380" y="270" as="sourcePoint" />
            <mxPoint x="410" y="240" as="targetPoint" />
          </mxGeometry>
        </mxCell>
        <mxCell id="eBX_AqDf1ne4Vbr7rgHg-13" value="" style="endArrow=none;html=1;rounded=0;entryX=0.5;entryY=1;entryDx=0;entryDy=0;" edge="1" parent="1" target="eBX_AqDf1ne4Vbr7rgHg-8">
          <mxGeometry width="50" height="50" relative="1" as="geometry">
            <mxPoint x="380" y="207" as="sourcePoint" />
            <mxPoint x="430" y="157" as="targetPoint" />
          </mxGeometry>
        </mxCell>
        <mxCell id="eBX_AqDf1ne4Vbr7rgHg-17" value="Database" style="rounded=1;whiteSpace=wrap;html=1;" vertex="1" parent="1">
          <mxGeometry x="567" y="147" width="100" height="40" as="geometry" />
        </mxCell>
        <mxCell id="eBX_AqDf1ne4Vbr7rgHg-18" value="OpenWeather API" style="rounded=1;whiteSpace=wrap;html=1;" vertex="1" parent="1">
          <mxGeometry x="562.5" y="204.75" width="110" height="46.5" as="geometry" />
        </mxCell>
        <mxCell id="eBX_AqDf1ne4Vbr7rgHg-19" value="Email Calendar" style="rounded=1;whiteSpace=wrap;html=1;" vertex="1" parent="1">
          <mxGeometry x="566.5" y="270" width="105" height="40" as="geometry" />
        </mxCell>
        <mxCell id="eBX_AqDf1ne4Vbr7rgHg-28" value="" style="edgeStyle=orthogonalEdgeStyle;rounded=0;orthogonalLoop=1;jettySize=auto;html=1;" edge="1" parent="1" source="eBX_AqDf1ne4Vbr7rgHg-27" target="eBX_AqDf1ne4Vbr7rgHg-6">
          <mxGeometry relative="1" as="geometry" />
        </mxCell>
        <mxCell id="eBX_AqDf1ne4Vbr7rgHg-27" value="" style="html=1;verticalLabelPosition=bottom;align=center;labelBackgroundColor=#ffffff;verticalAlign=top;strokeWidth=2;strokeColor=#0080F0;shadow=0;dashed=0;shape=mxgraph.ios7.icons.user;" vertex="1" parent="1">
          <mxGeometry x="165" y="80" width="30" height="30" as="geometry" />
        </mxCell>
      </root>
    </mxGraphModel>
  </diagram>
</mxfile>
